<svg
   version="1.1"
   width="559"
   height="417.15488"
   viewBox="0 0 559 417.15488"
   overflow="hidden"
   xmlns="http://www.w3.org/2000/svg">
  <path
     style="fill:#f9d005"
     d="M 100,407.89569 C 94.775,402.832 83.975,392.40249 76,384.71901 68.025,377.03553 47.6625,357.0216 30.75,340.24361 L 0,309.73817 V 154.93398 0.12978 L 168.75,0.02886 c 92.8125,-0.0555 196.65,-0.0285 230.75,0.06 l 62,0.16088 2.58654,2.69004 c 1.4226,1.47952 23.3601,23.35173 48.74996,48.60492 L 559,97.45955 v 159.83512 159.83511 l -224.75,-0.0137 -224.75,-0.0137 z" />
  <path
     style="fill:#1e1c16"
     d="M 101.5,408.41914 C 88.05042,395.51062 40.33455,349.27259 26.82761,336.05948 20.32242,329.69581 15,324.0797 15,323.57923 c 0,-0.50047 4.1625,3.14476 9.25,8.10051 27.6724,26.95579 37.59277,36.5396 40.72523,39.34357 l 3.47523,3.1108 226.52477,-0.25217 226.52477,-0.25216 0.2531,-155.75 c 0.1393,-85.6625 0.435,-155.75 0.6573,-155.75 0.2223,0 8.3242,7.7625 18.0043,17.25 l 17.6001,17.25 -0.01,160.26254 -0.01,160.26255 -223.75,-0.0489 -223.75,-0.0489 z M 70,347.90419 C 67.525,345.60763 55.2625,333.84871 42.75,321.77326 L 20,299.81791 V 159.97385 20.12978 H 235.77941 451.55882 L 476.27941,44.23714 501,68.34451 v 141.89263 141.89264 l -213.25,-0.025 -213.25,-0.025 z m 357.25,-24.02441 c 0.1375,-6.7375 0.27558,-17.425 0.30685,-23.75 0.0313,-6.325 0.14377,-13.40549 0.25,-15.73443 L 428,280.16093 l 28.25,-0.26558 28.25,-0.26557 0.25471,-102.20203 0.25471,-102.20202 -9.5614,-9.29798 C 470.18925,60.81387 461.07463,52.02904 455.19331,46.40592 L 444.5,36.18207 240.25,36.15592 36,36.12978 V 164.5083 292.88682 l 19.75,18.9772 c 10.8625,10.43746 21.1,20.1529 22.75,21.58988 l 3,2.61268 172.75,0.0316 172.75,0.0316 z M 82,179.62978 v -118.5 h 31 31 v 96.5 96.5 h 57.5 57.5 v 22 22 H 170.5 82 Z m 205.12777,84.25 c -1.59067,-3.4375 -6.2647,-13.225 -10.38673,-21.75 C 267.47865,222.97369 251,188.12759 251,187.69723 c 0,-1.23067 -17.18325,-35.56745 -17.79912,-35.56745 -0.42885,0 -0.78805,1.0125 -0.79823,2.25 -0.0102,1.2375 -0.10494,18.5625 -0.21058,38.5 L 232,229.12978 h -28.50571 -28.50571 l 0.25571,-83.75 0.25571,-83.75 36.38234,-0.26261 c 24.42039,-0.17627 36.8002,0.0842 37.65328,0.79218 0.69903,0.58013 2.51439,3.62331 4.03414,6.76261 1.51975,3.1393 9.88827,20.28972 18.59671,38.11203 C 280.87491,124.85631 288,139.55062 288,139.68801 c 0,0.13739 3.84445,8.23854 8.54323,18.00256 4.95202,10.29027 8.90982,17.37159 9.41533,16.84598 C 306.80798,173.65337 339,109.52005 339,108.71101 c 0,-0.22359 5.15366,-11.00657 11.45258,-23.96218 l 11.45259,-23.55565 37.79741,0.2183 37.79742,0.2183 v 94.5 94.5 l -30.25,0.26466 -30.25,0.26467 v -49.51467 c 0,-27.23306 -0.3375,-49.50394 -0.75,-49.49083 -0.4125,0.0131 -4.33024,7.7756 -8.7061,17.25 -4.37585,9.47439 -10.40049,22.40117 -13.38807,28.72617 -2.98759,6.325 -10.02071,21.4 -15.62917,33.5 -5.60845,12.1 -11.94071,25.7125 -14.07168,30.25 l -3.8745,8.25 H 305.3002 290.01991 Z" />
</svg>